<svg height="512" viewBox="0 0 64 64" width="512" xmlns="http://www.w3.org/2000/svg"><g id="Bubble-2" data-name="Bubble"><g fill="#b1e8ed"><circle cx="35" cy="20" r="12"/><circle cx="14" cy="44" r="12"/><circle cx="56" cy="38" r="6"/><circle cx="13" cy="22" r="6"/><circle cx="38" cy="50" r="8"/></g><circle cx="53" cy="25" fill="#3d9ae2" r="2"/><circle cx="44" cy="37" fill="#3d9ae2" r="2"/><circle cx="30" cy="38" fill="#3d9ae2" r="2"/><circle cx="19" cy="12" fill="#3d9ae2" r="2"/><circle cx="4" cy="29" fill="#3d9ae2" r="2"/><path d="m35 7a13 13 0 1 0 13 13 13.015 13.015 0 0 0 -13-13zm0 24a11 11 0 1 1 11-11 11.013 11.013 0 0 1 -11 11z"/><path d="m35 11a1 1 0 0 0 0 2 7.008 7.008 0 0 1 7 7 1 1 0 0 0 2 0 9.011 9.011 0 0 0 -9-9z"/><path d="m27 44a13 13 0 1 0 -13 13 13.015 13.015 0 0 0 13-13zm-13 11a11 11 0 1 1 11-11 11.013 11.013 0 0 1 -11 11z"/><path d="m14 35a1 1 0 0 0 0 2 7.008 7.008 0 0 1 7 7 1 1 0 0 0 2 0 9.011 9.011 0 0 0 -9-9z"/><path d="m56 45a7 7 0 1 0 -7-7 7.008 7.008 0 0 0 7 7zm0-12a5 5 0 1 1 -5 5 5.006 5.006 0 0 1 5-5z"/><path d="m56 36a2 2 0 0 1 2 2 1 1 0 0 0 2 0 4 4 0 0 0 -4-4 1 1 0 0 0 0 2z"/><path d="m13 29a7 7 0 1 0 -7-7 7.008 7.008 0 0 0 7 7zm0-12a5 5 0 1 1 -5 5 5.006 5.006 0 0 1 5-5z"/><path d="m13 20a2 2 0 0 1 2 2 1 1 0 0 0 2 0 4 4 0 0 0 -4-4 1 1 0 0 0 0 2z"/><path d="m38 41a9 9 0 1 0 9 9 9.011 9.011 0 0 0 -9-9zm0 16a7 7 0 1 1 7-7 7.008 7.008 0 0 1 -7 7z"/><path d="m38 45a1 1 0 0 0 0 2 3 3 0 0 1 3 3 1 1 0 0 0 2 0 5.006 5.006 0 0 0 -5-5z"/><path d="m50 25a3 3 0 1 0 3-3 3 3 0 0 0 -3 3zm4 0a1 1 0 1 1 -1-1 1 1 0 0 1 1 1z"/><path d="m44 34a3 3 0 1 0 3 3 3 3 0 0 0 -3-3zm0 4a1 1 0 1 1 1-1 1 1 0 0 1 -1 1z"/><path d="m33 38a3 3 0 1 0 -3 3 3 3 0 0 0 3-3zm-4 0a1 1 0 1 1 1 1 1 1 0 0 1 -1-1z"/><path d="m16 12a3 3 0 1 0 3-3 3 3 0 0 0 -3 3zm4 0a1 1 0 1 1 -1-1 1 1 0 0 1 1 1z"/><path d="m4 32a3 3 0 1 0 -3-3 3 3 0 0 0 3 3zm0-4a1 1 0 1 1 -1 1 1 1 0 0 1 1-1z"/><path fill="#723881" d="m10 8h2v2a1 1 0 0 0 2 0v-2h2a1 1 0 0 0 0-2h-2v-2a1 1 0 0 0 -2 0v2h-2a1 1 0 0 0 0 2z"/><path fill="#723881" d="m19 8h1a1 1 0 0 0 0-2h-1a1 1 0 0 0 0 2z"/><path fill="#723881" d="m60 50h-2v-2a1 1 0 0 0 -2 0v2h-2a1 1 0 0 0 0 2h2v2a1 1 0 0 0 2 0v-2h2a1 1 0 0 0 0-2z"/><path fill="#723881" d="m51 50h-1a1 1 0 0 0 0 2h1a1 1 0 0 0 0-2z"/><path fill="#723881" d="m50 18h1v1a1 1 0 0 0 2 0v-1h1a1 1 0 0 0 0-2h-1v-1a1 1 0 0 0 -2 0v1h-1a1 1 0 0 0 0 2z"/><path fill="#723881" d="m28 58h-1v-1a1 1 0 0 0 -2 0v1h-1a1 1 0 0 0 0 2h1v1a1 1 0 0 0 2 0v-1h1a1 1 0 0 0 0-2z"/></g></svg>