<?xml version="1.0" encoding="iso-8859-1"?>
<!-- Generator: Adobe Illustrator 19.0.0, SVG Export Plug-In . SVG Version: 6.00 Build 0)  -->
<svg version="1.1" id="Capa_1" xmlns="http://www.w3.org/2000/svg" xmlns:xlink="http://www.w3.org/1999/xlink" x="0px" y="0px"
	 viewBox="0 0 512 512" style="enable-background:new 0 0 512 512;" xml:space="preserve">
<g>
	<g>
		<path d="M256,172.972c-65.308,0-118.569,52.016-120.867,116.77c3.19,1.772,7.188,4.11,12.42,3.916
			c13.375-0.485,28.541-16.876,28.541-16.868c29.82-27.399,50.875,5.036,76.841,15.298c14.972,6.137,28.202-7.085,39.396-15.318
			c16.259-11.949,37.141-14.759,53.159-0.048c0.146,0.118,14.26,14.627,31.488,15.291C375.87,226.193,322.076,172.972,256,172.972z"
			 fill="#f2f2f2"/>
	</g>
</g>
<g>
	<g>
		<path d="M404.757,0H107.243H38.054v442.811c0,38.054,31.135,69.189,69.189,69.189h297.513c38.054,0,69.189-31.135,69.189-69.189V0
			H404.757z M318.263,41.513c13.388,0,24.223,10.835,24.223,24.216c0,13.375-10.835,24.216-24.223,24.216
			c-13.375,0-24.21-10.842-24.21-24.216C294.054,52.348,304.889,41.513,318.263,41.513z M86.486,48.433h76.108v34.594H86.486V48.433
			z M256,449.73c-85.981,0-155.675-69.694-155.675-155.675c0-85.989,69.694-155.675,155.675-155.675
			c85.989,0,155.675,69.688,155.675,155.675C411.675,380.036,341.989,449.73,256,449.73z M401.29,89.946
			c-13.375,0-24.21-10.835-24.21-24.216s10.835-24.216,24.21-24.216c13.388,0,24.223,10.835,24.223,24.216
			S414.679,89.946,401.29,89.946z" fill="#f2f2f2"/>
	</g>
</g>
<g>
</g>
<g>
</g>
<g>
</g>
<g>
</g>
<g>
</g>
<g>
</g>
<g>
</g>
<g>
</g>
<g>
</g>
<g>
</g>
<g>
</g>
<g>
</g>
<g>
</g>
<g>
</g>
<g>
</g>
</svg>
