<?xml version="1.0" encoding="iso-8859-1"?>
<!-- Generator: Adobe Illustrator 19.0.0, SVG Export Plug-In . SVG Version: 6.00 Build 0)  -->
<svg version="1.1" id="Capa_1" xmlns="http://www.w3.org/2000/svg" xmlns:xlink="http://www.w3.org/1999/xlink" x="0px" y="0px"
	 viewBox="0 0 503.122 503.122" style="enable-background:new 0 0 503.122 503.122;" xml:space="preserve">
<g>
	<path style="fill:#F4B844;" d="M492.673,326.794v55.38c0,18.808-50.155,34.482-111.804,34.482S270.11,401.504,270.11,382.696
		v-50.155l0,0c8.882,16.196,54.857,28.735,109.714,28.735S492.673,345.602,492.673,326.794z"/>
	<path style="fill:#F4B844;" d="M492.673,272.459v54.335h-1.045c0,18.808-51.2,34.482-112.849,34.482
		s-100.833-12.539-109.714-28.735l0,0v-11.494l-1.045-45.975c5.747,17.241,53.29,30.824,110.759,30.824
		s111.804-14.629,113.371-33.437H492.673z"/>
</g>
<path style="fill:#FEDB41;" d="M268.02,275.071c0-1.045-0.522-2.09-0.522-3.657c0-1.567,0.522-2.09,0.522-3.135
	c5.747-17.241,52.767-30.824,109.714-30.824h1.045c61.649,0,113.371,15.151,113.371,33.959v1.045
	c-1.567,18.808-52.245,33.437-113.371,33.437S273.767,292.312,268.02,275.071z"/>
<g>
	<path style="fill:#F4B844;" d="M377.734,235.888v1.567c-56.947,0-103.967,13.584-109.714,30.824l-4.702-2.612
		c-10.971,0-21.943-0.522-32.392-1.567h-2.612c-5.224-23.51-17.763-45.453-36.049-61.127h1.045
		c22.988,5.225,46.498,7.837,70.008,7.314c61.649,0,113.371-15.151,113.371-33.959h1.045V235.888z"/>
	<path style="fill:#F4B844;" d="M377.734,120.949v55.38h-1.045c0,18.808-51.722,33.959-113.371,33.959
		c-23.51,0.522-47.02-2.09-70.008-7.314h-1.045c-11.494-9.404-24.555-16.718-38.661-21.42v-1.045l-1.045-57.992
		c3.657,17.763,51.722,32.392,110.759,32.392s113.371-15.673,113.371-34.482L377.734,120.949z"/>
</g>
<path style="fill:#FEDB41;" d="M376.69,120.949L376.69,120.949c0,18.808-51.722,34.482-113.371,34.482
	s-107.102-14.629-110.759-32.392c-0.522-0.522-0.522-1.567-0.522-2.09c0-18.808,50.155-34.482,111.282-34.482
	S376.69,102.141,376.69,120.949z"/>
<g>
	<path style="fill:#F4B844;" d="M269.065,332.541v43.886h-5.224c-22.988,0.522-45.976-2.09-68.441-7.314l-1.045-1.567
		c14.629-13.061,25.078-29.78,30.824-48.588h2.612c11.494,1.567,23.51,2.09,35.004,2.09h5.747L269.065,332.541z"/>
	<path style="fill:#F4B844;" d="M268.02,275.071l1.045,45.975h-5.747c-11.494,0-23.51-0.522-35.004-2.09h-2.612
		c3.135-10.449,4.702-21.42,4.702-32.392c0-7.314-0.522-14.629-2.09-21.943h2.612c10.449,1.045,21.42,1.567,32.392,1.567
		l4.702,2.612c0,1.045-0.522,2.09-0.522,3.135C267.498,272.981,268.02,274.026,268.02,275.071z"/>
</g>
<path style="fill:#FEDB41;" d="M228.314,264.622c1.567,7.314,2.09,14.629,2.09,21.943c0,30.824-12.539,60.082-35.527,80.98
	c-44.408,41.273-113.894,38.661-155.167-5.747S1.049,247.904,45.457,206.63c20.375-18.808,47.543-29.257,75.755-29.257
	c10.971,0,21.943,1.567,32.392,4.702c14.106,4.702,27.167,12.016,38.661,21.42C210.551,219.169,223.09,241.112,228.314,264.622z"/>
<g>
	<path style="fill:#083863;" d="M171.367,339.855c-2.09-5.225-7.837-8.359-13.584-6.269l0,0
		c-18.808,7.314-39.706,2.612-53.812-11.494c-2.612-2.09-4.702-4.702-6.269-7.837h50.155c5.747,0,10.449-4.702,10.449-10.449
		c0-5.747-4.702-10.449-10.449-10.449H89.865c-0.522-3.657-0.522-6.792-0.522-10.449h63.739c5.747,0,10.449-4.702,10.449-10.449
		s-4.702-10.449-10.449-10.449H95.612c2.612-4.18,5.224-7.837,8.359-10.971c14.106-14.106,35.004-18.286,53.812-11.494
		c5.224,2.09,11.494-0.522,13.584-5.747c2.09-5.225-0.522-11.494-6.269-13.584l0,0c-26.122-9.926-55.902-3.657-75.755,16.196
		c-7.314,7.314-13.061,16.196-16.718,25.6H59.041c-5.747,0-10.449,4.702-10.449,10.449c0,5.747,4.702,10.449,10.449,10.449h9.404
		c0,3.657,0,6.792,0.522,10.449h-9.927c-5.747,0-10.449,4.702-10.449,10.449s4.702,10.449,10.449,10.449h15.151
		c3.135,8.882,8.359,16.718,15.151,22.988c19.853,19.853,49.633,26.122,75.755,16.196
		C170.322,351.349,173.457,345.602,171.367,339.855L171.367,339.855z"/>
	<path style="fill:#083863;" d="M503.122,270.369c-2.09-28.735-57.469-42.318-114.939-43.363V120.949
		c0-2.09-0.522-3.657-1.567-5.224c-6.269-27.167-66.351-39.706-122.776-39.706S142.11,90.124,142.11,120.949v3.135l1.045,44.931
		c-7.314-1.567-14.629-2.09-21.943-2.09C54.861,166.402,0.526,219.692,0.004,286.043c-0.522,66.351,52.767,120.686,119.118,121.208
		c28.212,0,55.38-9.404,76.8-27.167c20.898,4.18,42.318,6.792,63.739,6.792c5.747,27.69,65.306,40.229,121.208,40.229
		S502.6,412.998,502.6,382.173V270.369H503.122z M279.514,328.883v-30.302c23.51,12.016,62.694,17.763,100.31,17.763
		s76.278-5.747,102.4-18.808v26.122c0,1.045-0.522,2.09-0.522,3.135c0,1.045-35.004,24.033-102.4,24.033
		C324.445,350.826,287.351,338.288,279.514,328.883z M164.575,174.761l-1.045-26.645c23.51,12.016,62.694,17.241,100.31,17.241
		s77.322-5.747,103.445-18.808v25.6c0,1.045-1.045,2.612-1.045,3.657s-35.004,24.033-102.4,24.033
		c-22.988,0-45.453-2.09-67.918-7.314h-1.045C185.473,185.21,175.547,179.463,164.575,174.761z M263.841,220.737
		c39.184,0,77.322-5.747,103.445-18.808v25.077c-41.796,1.567-86.204,10.449-102.922,28.212h-0.522l-27.167-1.045
		c-3.657-13.061-9.404-25.077-17.241-36.049C234.061,219.692,249.212,220.737,263.841,220.737z M240.853,275.594h17.241v34.482
		l-19.853-1.045c1.567-7.314,2.612-15.151,2.612-22.988C241.375,282.908,240.853,279.251,240.853,275.594z M233.016,329.928
		c8.359,1.045,16.718,1.045,25.6,1.567v34.482c-14.629-0.522-29.78-1.567-44.408-3.657
		C222.045,352.916,228.836,341.945,233.016,329.928z M482.224,271.414L482.224,271.414c0,7.314-37.616,24.033-102.922,24.033
		s-99.265-16.196-100.833-24.555c-1.567-8.359,38.139-24.555,99.265-24.555h1.567C446.175,246.337,482.224,265.145,482.224,271.414z
		 M263.841,96.916c65.306,0,101.878,16.718,102.4,24.033s-35.527,24.033-102.4,24.033s-99.265-13.584-100.833-24.033l0,0
		C163.008,116.769,190.175,96.916,263.841,96.916z M188.085,359.708c-40.229,36.571-102.922,33.437-139.494-6.792
		c-36.571-40.229-33.437-102.923,6.792-139.494c18.286-16.196,41.273-25.6,65.829-25.6c9.926,0,19.853,1.567,29.78,4.18
		c13.061,4.18,24.555,10.971,35.004,19.853c16.718,14.106,28.212,33.437,32.392,54.857c1.567,6.269,2.09,13.061,2.09,19.853
		C220.477,314.255,208.461,340.9,188.085,359.708z M381.392,406.206c-65.306,0-100.833-16.718-100.833-24.033v-28.212
		c24.033,12.016,63.216,17.763,99.265,17.763s76.278-6.269,102.4-18.808v29.257C482.224,387.92,450.877,406.206,381.392,406.206z"/>
</g>
<g>
</g>
<g>
</g>
<g>
</g>
<g>
</g>
<g>
</g>
<g>
</g>
<g>
</g>
<g>
</g>
<g>
</g>
<g>
</g>
<g>
</g>
<g>
</g>
<g>
</g>
<g>
</g>
<g>
</g>
</svg>
