<?xml version="1.0" encoding="iso-8859-1"?>
<!-- Generator: Adobe Illustrator 19.0.0, SVG Export Plug-In . SVG Version: 6.00 Build 0)  -->
<svg version="1.1" id="Layer_1" xmlns="http://www.w3.org/2000/svg" xmlns:xlink="http://www.w3.org/1999/xlink" x="0px" y="0px"
	 viewBox="0 0 512 512" style="enable-background:new 0 0 512 512;" xml:space="preserve">
<path style="fill:#FF507D;" d="M154.527,315.063L84.746,470.528c-2.407,5.361,1.958,11.298,7.792,10.599l39.098-4.674l22.532,32.311
	c3.36,4.818,10.69,4.13,13.095-1.229l70.647-157.398L154.527,315.063z"/>
<path style="fill:#D23C69;" d="M357.473,315.063l69.781,155.465c2.407,5.361-1.958,11.298-7.792,10.599l-39.098-4.674
	l-22.533,32.311c-3.36,4.818-10.69,4.13-13.095-1.229l-70.647-157.398L357.473,315.063z"/>
<path style="fill:#FF507D;" d="M427.255,470.528l-49.103-109.394l-1.637-3.648c0,0-9.729,3.648-17.094,17.214
	c-3.533,6.507-8.999,11.294-12.631,13.986c-2.134,1.583-2.88,4.428-1.794,6.853l36.323,81.03l38.142,4.56
	C425.297,481.826,429.661,475.89,427.255,470.528z"/>
<path style="fill:#D23C69;" d="M154.527,315.063L84.746,470.528c-2.407,5.361,1.958,11.297,7.792,10.599l38.142-4.56l35.178-78.474
	c1.865-4.161,6.6-5.887,10.916-4.413c3.893,1.329,8.01,2.045,12.214,2.045c1.995,0,4.009-0.157,5.982-0.468l21.133-3.325
	c0.077-0.002,0.15-0.005,0.22-0.005c0.645,0,1.016,0.115,1.344,0.315l1.056,0.643l19.187-42.749L154.527,315.063z"/>
<path style="fill:#FFC850;" d="M448.486,206.09l-11.155,18.295c-2.516,4.127-3.486,9.015-2.735,13.791l3.325,21.133
	c1.19,7.566-1.958,15.163-8.153,19.668l-17.292,12.578c-3.915,2.848-6.69,6.994-7.828,11.699l-5.035,20.806
	c-1.799,7.431-7.6,13.232-15.031,15.03l-20.805,5.034c-4.705,1.138-8.853,3.914-11.7,7.828l-12.574,17.287
	c-4.506,6.195-12.103,9.343-19.67,8.153l-21.125-3.325c-4.776-0.752-9.664,0.217-13.793,2.735l-18.292,11.154
	c-6.522,3.977-14.72,3.977-21.241,0l-18.295-11.155c-4.127-2.516-9.015-3.486-13.791-2.735l-21.133,3.325
	c-7.566,1.19-15.163-1.958-19.668-8.153l-12.578-17.292c-2.848-3.915-6.994-6.69-11.699-7.828l-20.806-5.035
	c-7.431-1.799-13.232-7.6-15.03-15.031l-5.034-20.805c-1.138-4.705-3.914-8.853-7.828-11.7l-17.288-12.576
	c-6.195-4.506-9.343-12.103-8.153-19.67l3.325-21.125c0.752-4.776-0.217-9.664-2.735-13.793L63.513,206.09
	c-3.977-6.522-3.977-14.72,0-21.241l11.155-18.295c2.516-4.127,3.486-9.015,2.735-13.791l-3.325-21.133
	c-1.19-7.566,1.958-15.163,8.153-19.668l17.292-12.578c3.915-2.848,6.69-6.994,7.828-11.699l5.035-20.806
	c1.799-7.431,7.6-13.232,15.031-15.03l20.805-5.034c4.705-1.138,8.853-3.914,11.7-7.828L172.497,21.7
	c4.506-6.195,12.103-9.343,19.67-8.153l21.125,3.325c4.776,0.752,9.664-0.217,13.793-2.735l18.292-11.154
	c6.522-3.977,14.72-3.977,21.241,0l18.296,11.155c4.127,2.516,9.015,3.486,13.791,2.735l21.133-3.325
	c7.566-1.19,15.163,1.958,19.668,8.153l12.578,17.292c2.848,3.915,6.994,6.69,11.699,7.828l20.806,5.035
	c7.431,1.799,13.232,7.6,15.03,15.031l5.034,20.805c1.138,4.705,3.914,8.853,7.828,11.7l17.287,12.574
	c6.195,4.506,9.343,12.103,8.153,19.67l-3.325,21.125c-0.752,4.776,0.217,9.664,2.735,13.793l11.154,18.292
	C452.463,191.371,452.463,199.568,448.486,206.09z"/>
<path style="fill:#E1A546;" d="M138.432,154.773c0-54.222,20.336-103.674,53.758-141.221l-0.021-0.003
	c-7.567-1.192-15.164,1.957-19.669,8.152l-12.574,17.287c-2.848,3.915-6.995,6.69-11.7,7.828l-20.805,5.034
	c-7.431,1.797-13.232,7.599-15.031,15.03l-5.035,20.806c-1.138,4.705-3.914,8.852-7.828,11.699l-17.293,12.578
	c-6.194,4.505-9.343,12.102-8.153,19.668l3.325,21.132c0.752,4.776-0.218,9.663-2.735,13.791l-11.157,18.295
	c-3.977,6.522-3.977,14.72,0,21.241l11.154,18.292c2.518,4.128,3.486,9.017,2.735,13.793L74.078,259.3
	c-1.192,7.567,1.957,15.164,8.152,19.669l17.287,12.574c3.915,2.848,6.69,6.995,7.828,11.7l5.034,20.805
	c1.797,7.431,7.599,13.232,15.03,15.031l20.806,5.035c4.705,1.138,8.852,3.914,11.699,7.828l12.576,17.292
	c4.506,6.194,12.102,9.343,19.668,8.153l21.132-3.325c4.776-0.752,9.663,0.217,13.792,2.735l18.296,11.155
	c6.523,3.977,14.72,3.977,21.241,0l18.292-11.154c4.128-2.518,9.017-3.486,13.793-2.735l21.126,3.325
	c7.567,1.191,15.164-1.957,19.669-8.152l1.592-2.189C228.299,361.893,138.432,268.839,138.432,154.773z"/>
<circle style="fill:#FFDC64;" cx="256.006" cy="195.47" r="144.7"/>
<path style="fill:#FFC850;" d="M289.774,266.182c-53.255-8.497-95.99-51.232-104.487-104.487
	c-2.993-18.765-1.775-36.857,2.784-53.577c2.25-8.249-7.553-14.557-14.066-9.018c-30.363,25.818-48.399,65.67-43.947,109.578
	c5.972,58.91,53.822,106.759,112.731,112.731c43.908,4.452,83.761-13.583,109.578-43.947c5.538-6.514-0.769-16.316-9.018-14.066
	C326.631,267.958,308.539,269.176,289.774,266.182z"/>
<path style="fill:#FFFFFF;" d="M256,256.311l-52.64,29.466c-5.477,3.066-12.029-1.696-10.806-7.851l11.757-59.17l-44.291-40.958
	c-4.608-4.262-2.105-11.965,4.127-12.704l59.907-7.103l25.267-54.779c2.628-5.699,10.729-5.699,13.358,0l25.267,54.779l59.907,7.103
	c6.232,0.739,8.735,8.442,4.127,12.704l-44.291,40.958l11.757,59.17c1.223,6.155-5.33,10.917-10.806,7.851L256,256.311z"/>
<g>
	<path style="fill:#FFFAB4;" d="M255.87,98.973c-2.637,0.047-5.257,1.437-6.549,4.238l-25.267,54.78l-59.907,7.103
		c-6.232,0.739-8.735,8.442-4.127,12.703l44.291,40.959l-11.757,59.17c-1.223,6.155,5.33,10.917,10.806,7.851l8.332-4.663
		l14.123-64.572c0.644-2.946-0.115-6.024-2.055-8.333L208.8,190.412c-2.527-3.005-1.045-7.617,2.759-8.588l23.881-6.098
		c3.649-0.932,6.431-3.887,7.142-7.585L255.87,98.973z"/>
	<path style="fill:#FFFAB4;" d="M317.097,284.794l-29.055-32.284c-4.78-5.311-12.571-6.667-18.864-3.284L256,256.31l52.64,29.466
		C311.633,287.452,314.905,286.744,317.097,284.794z"/>
</g>
<g>
</g>
<g>
</g>
<g>
</g>
<g>
</g>
<g>
</g>
<g>
</g>
<g>
</g>
<g>
</g>
<g>
</g>
<g>
</g>
<g>
</g>
<g>
</g>
<g>
</g>
<g>
</g>
<g>
</g>
</svg>
