<?xml version="1.0" encoding="iso-8859-1"?>
<!-- Generator: Adobe Illustrator 19.0.0, SVG Export Plug-In . SVG Version: 6.00 Build 0)  -->
<svg version="1.1" id="Layer_1" xmlns="http://www.w3.org/2000/svg" xmlns:xlink="http://www.w3.org/1999/xlink" x="0px" y="0px"
	 viewBox="0 0 511.999 511.999" style="enable-background:new 0 0 511.999 511.999;" xml:space="preserve">
<g>
	<polygon style="fill:#FF507D;" points="361.171,335.434 281.818,368.812 342.388,503.93 371.094,462.768 420.922,468.726 	"/>
	<polygon style="fill:#FF507D;" points="91.408,468.726 141.236,462.768 169.941,503.93 230.512,368.812 151.159,335.434 	"/>
</g>
<g>
	<path style="fill:#D23C69;" d="M190.11,351.818l-38.951-16.384L91.408,468.726l48.918-5.849l33.081-73.795
		c5.846,2.684,12.242,4.198,18.821,4.198c2.346,0,4.711-0.185,7.03-0.55l17.789-2.799l3.139,1.914l10.326-23.033L190.11,351.818z"/>
	<path style="fill:#D23C69;" d="M338.868,388.96c6.852-3.203,12.924-8.049,17.473-14.306l10.58-14.546l4.789-1.159l-10.542-23.515
		l-38.951,16.384l-40.402,16.994l60.571,135.119l28.707-41.163l0.91,0.109L338.868,388.96z"/>
</g>
<path style="fill:#FFC850;" d="M439.176,204.208l-10.616,17.411c-2.395,3.928-3.318,8.579-2.602,13.124l3.164,20.111
	c1.133,7.2-1.863,14.43-7.759,18.717l-16.455,11.969c-3.725,2.71-6.367,6.656-7.45,11.133l-4.792,19.8
	c-1.712,7.071-7.233,12.592-14.304,14.303l-19.799,4.791c-4.477,1.083-8.425,3.724-11.134,7.45l-11.966,16.451
	c-4.288,5.895-11.517,8.891-18.719,7.759l-20.103-3.164c-4.545-0.715-9.197,0.207-13.126,2.602l-17.408,10.615
	c-6.206,3.785-14.008,3.785-20.214,0l-17.411-10.616c-3.928-2.395-8.579-3.318-13.124-2.602l-20.111,3.164
	c-7.2,1.133-14.43-1.863-18.717-7.759l-11.969-16.455c-2.71-3.725-6.656-6.367-11.133-7.45l-19.8-4.792
	c-7.071-1.712-12.592-7.233-14.303-14.304l-4.791-19.799c-1.083-4.477-3.724-8.425-7.45-11.134l-16.451-11.966
	c-5.895-4.288-8.891-11.517-7.759-18.719l3.164-20.103c0.715-4.545-0.207-9.197-2.602-13.126L72.821,204.21
	c-3.785-6.206-3.785-14.008,0-20.214l10.616-17.411c2.395-3.928,3.318-8.579,2.602-13.124l-3.164-20.111
	c-1.133-7.2,1.863-14.43,7.759-18.717l16.455-11.969c3.725-2.71,6.367-6.656,7.45-11.133l4.792-19.8
	c1.712-7.071,7.233-12.592,14.304-14.303l19.799-4.791c4.477-1.083,8.425-3.724,11.135-7.45l11.966-16.451
	c4.288-5.895,11.517-8.891,18.719-7.759l20.103,3.164c4.545,0.715,9.197-0.207,13.126-2.602l17.407-10.615
	c6.206-3.785,14.008-3.785,20.214,0l17.411,10.616c3.928,2.395,8.579,3.318,13.124,2.602l20.111-3.164
	c7.2-1.133,14.43,1.863,18.717,7.759l11.969,16.455c2.71,3.725,6.656,6.367,11.133,7.45l19.8,4.792
	c7.071,1.712,12.592,7.233,14.303,14.304l4.791,19.799c1.083,4.477,3.724,8.425,7.45,11.135l16.451,11.966
	c5.895,4.288,8.891,11.517,7.759,18.719l-3.164,20.103c-0.715,4.545,0.207,9.197,2.602,13.126l10.615,17.407
	C442.96,190.201,442.96,198.001,439.176,204.208z"/>
<path style="fill:#E1A546;" d="M144.115,155.372c0-51.6,19.353-98.66,51.158-134.392l-0.02-0.003
	c-7.201-1.134-14.431,1.862-18.718,7.758L164.57,45.186c-2.71,3.725-6.657,6.367-11.135,7.45l-19.799,4.791
	c-7.071,1.711-12.592,7.232-14.304,14.303l-4.792,19.8c-1.083,4.477-3.724,8.423-7.45,11.133l-16.456,11.969
	c-5.894,4.287-8.891,11.516-7.759,18.717l3.164,20.11c0.715,4.545-0.208,9.196-2.602,13.124L72.82,183.992
	c-3.785,6.206-3.785,14.008,0,20.214l10.615,17.407c2.396,3.929,3.318,8.581,2.602,13.126l-3.164,20.105
	c-1.134,7.201,1.862,14.431,7.758,18.718l16.451,11.966c3.725,2.71,6.367,6.657,7.45,11.135l4.791,19.799
	c1.711,7.071,7.232,12.592,14.303,14.304l19.8,4.792c4.477,1.083,8.423,3.724,11.133,7.45l11.968,16.455
	c4.288,5.894,11.516,8.891,18.717,7.759l20.11-3.164c4.545-0.715,9.196,0.207,13.125,2.602l17.411,10.616
	c6.207,3.785,14.008,3.785,20.214,0l17.407-10.615c3.929-2.396,8.581-3.318,13.126-2.602l20.104,3.164
	c7.201,1.134,14.431-1.862,18.718-7.758l1.515-2.083C229.638,352.476,144.115,263.923,144.115,155.372z"/>
<circle style="fill:#FFDC64;" cx="255.995" cy="194.105" r="137.702"/>
<path style="fill:#FFC850;" d="M287.087,260.482c-48.781-9.708-87.801-48.749-97.482-97.535
	c-3.092-15.584-3.162-30.729-0.793-45.055c0.897-5.426-5.717-8.775-9.711-4.994c-24.706,23.382-38.77,57.882-34.093,95.522
	c6.207,49.97,46.696,90.461,96.665,96.672c37.643,4.68,72.145-9.385,95.531-34.092c3.78-3.994,0.432-10.608-4.994-9.711
	C317.862,263.66,302.693,263.587,287.087,260.482z"/>
<path style="fill:#FFFFFF;" d="M255.998,247.79l-46.602,26.086c-4.849,2.714-10.65-1.501-9.567-6.951l10.408-52.383l-39.211-36.261
	c-4.079-3.773-1.863-10.592,3.654-11.246l53.036-6.288l22.369-48.497c2.327-5.045,9.498-5.045,11.825,0l22.369,48.497l53.036,6.288
	c5.518,0.654,7.734,7.475,3.654,11.246l-39.211,36.261l10.408,52.383c1.083,5.45-4.718,9.665-9.567,6.951L255.998,247.79z"/>
<path style="fill:#FFFAB4;" d="M255.998,116.643l5.201-5.201c-2.756-4.02-8.952-3.879-11.114,0.807l-22.369,48.497l-53.037,6.288
	c-5.518,0.654-7.734,7.474-3.654,11.246l39.211,36.261l-10.409,52.383c-1.083,5.45,4.718,9.665,9.567,6.951l12.279-6.873
	l17.793-52.046c1.919-5.612,0.812-11.819-2.928-16.422l-3.162-3.891c-2.26-2.782-0.905-6.97,2.558-7.898l2.971-0.797
	c7.025-1.885,12.106-7.981,12.695-15.23L255.998,116.643z"/>
<path d="M314.08,78.199c3.976,2.012,8.83,0.414,10.84-3.563c2.01-3.977,0.415-8.83-3.563-10.84
	c-56.318-28.458-124.159-17.577-168.81,27.075c-51.895,51.894-57.089,134.64-12.081,192.474c1.591,2.044,3.969,3.114,6.373,3.114
	c1.732,0,3.477-0.555,4.95-1.702c3.517-2.737,4.149-7.806,1.413-11.323c-40.019-51.422-35.394-125.002,10.757-171.153
	C203.667,62.569,263.996,52.891,314.08,78.199z"/>
<path d="M374.946,124.674c-3.977,2.009-5.574,6.861-3.565,10.84c25.289,50.076,15.606,110.396-24.095,150.096
	c-46.152,46.15-119.731,50.774-171.153,10.757c-3.518-2.736-8.586-2.104-11.323,1.413c-2.737,3.517-2.104,8.586,1.413,11.323
	c26.344,20.501,57.855,30.586,89.266,30.586c37.548,0,74.952-14.411,103.209-42.668c44.64-44.64,55.526-112.468,27.089-168.781
	C383.777,124.262,378.925,122.667,374.946,124.674z"/>
<path d="M341.373,96.719c2.015,1.78,4.005,3.652,5.915,5.561c1.908,1.91,3.78,3.899,5.561,5.914
	c1.594,1.804,3.816,2.725,6.049,2.725c1.899,0,3.805-0.667,5.34-2.022c3.339-2.951,3.653-8.049,0.703-11.388
	c-1.999-2.262-4.099-4.496-6.242-6.638c-2.143-2.143-4.376-4.243-6.638-6.242c-3.339-2.952-8.439-2.636-11.388,0.702
	C337.719,88.669,338.033,93.769,341.373,96.719z"/>
<path d="M446.064,179.794l-10.615-17.407c-1.398-2.294-1.939-5.018-1.521-7.67l3.164-20.103
	c1.613-10.245-2.596-20.398-10.982-26.499l-16.451-11.966c-2.175-1.582-3.721-3.892-4.354-6.506l-4.791-19.799
	c-2.432-10.057-10.191-17.815-20.247-20.249l-19.8-4.792c-2.614-0.633-4.925-2.178-6.506-4.354l-11.968-16.455
	c-6.1-8.386-16.254-12.597-26.496-10.983l-20.11,3.164c-2.652,0.417-5.377-0.123-7.669-1.521L270.308,4.036
	c-8.826-5.382-19.79-5.381-28.616,0l-17.407,10.615c-2.293,1.399-5.015,1.938-7.67,1.521l-20.105-3.164
	c-10.242-1.612-20.397,2.597-26.497,10.983l-11.966,16.451c-1.582,2.175-3.893,3.721-6.507,4.354l-19.799,4.791
	c-10.055,2.432-17.815,10.191-20.249,20.247l-4.792,19.8c-0.633,2.614-2.178,4.925-4.354,6.506L85.89,108.108
	c-8.386,6.099-12.594,16.251-10.983,26.496l3.164,20.111c0.417,2.653-0.123,5.377-1.521,7.669l-10.617,17.411
	c-5.38,8.826-5.38,19.79,0.001,28.615l10.615,17.407c1.399,2.294,1.939,5.018,1.521,7.67l-3.164,20.105
	c-1.613,10.244,2.596,20.398,10.982,26.498l16.451,11.966c2.175,1.581,3.721,3.892,4.354,6.506l4.791,19.799
	c2.432,10.057,10.191,17.815,20.247,20.249l8.268,2.001L84.045,465.425c-1.189,2.653-0.86,5.739,0.863,8.081
	c1.722,2.342,4.569,3.577,7.457,3.231l45.022-5.383l25.936,37.191c1.518,2.175,3.996,3.453,6.616,3.453
	c0.251,0,0.505-0.012,0.757-0.035c2.894-0.272,5.419-2.081,6.608-4.732l57.145-127.479l7.241,4.415
	c4.413,2.691,9.361,4.036,14.308,4.036s9.895-1.346,14.308-4.036l7.502-4.574l57.217,127.638c1.189,2.653,3.713,4.46,6.608,4.732
	c0.253,0.024,0.506,0.035,0.757,0.035c2.621,0,5.099-1.278,6.616-3.453l25.936-37.191l45.022,5.383
	c2.886,0.343,5.735-0.889,7.457-3.231c1.722-2.342,2.053-5.428,0.863-8.081l-55.983-124.883l7.957-1.925
	c10.055-2.432,17.815-10.191,20.249-20.247l4.792-19.8c0.633-2.614,2.178-4.925,4.354-6.506l16.455-11.968
	c8.386-6.099,12.594-16.251,10.983-26.496l-3.164-20.111c-0.417-2.653,0.123-5.377,1.521-7.669l10.617-17.411l0,0
	C451.446,199.583,451.446,188.618,446.064,179.794z M168.408,487.627l-20.554-29.474c-1.704-2.444-4.618-3.752-7.576-3.396
	l-35.679,4.266L155.578,345.3c0.932,0.685,1.768,1.506,2.457,2.455l11.968,16.455c1.137,1.563,2.415,2.98,3.808,4.242
	l-26.833,59.857c-1.822,4.066-0.004,8.84,4.062,10.663c1.072,0.481,2.192,0.708,3.295,0.708c3.082,0,6.026-1.776,7.367-4.77
	l26.738-59.644c2.631,0.361,5.34,0.355,8.059-0.073l20.11-3.164c1.204-0.189,2.421-0.172,3.606,0.024L168.408,487.627z
	 M372.052,454.757c-2.961-0.355-5.872,0.952-7.576,3.396l-20.554,29.474l-51.829-115.619c1.087-0.148,2.196-0.148,3.293,0.024
	l20.103,3.164c2.829,0.445,5.648,0.431,8.379,0.024l26.758,59.692c1.343,2.995,4.285,4.77,7.367,4.77
	c1.103,0,2.224-0.227,3.295-0.708c4.066-1.822,5.885-6.597,4.062-10.663l-26.935-60.085c1.298-1.206,2.5-2.541,3.571-4.013
	l11.966-16.451c0.754-1.037,1.678-1.926,2.716-2.645l51.062,113.907L372.052,454.757z M432.287,200.008l-10.617,17.411
	c-3.386,5.554-4.695,12.152-3.684,18.578l3.164,20.11c0.665,4.229-1.073,8.42-4.534,10.938l-16.456,11.969
	c-5.267,3.832-9.013,9.429-10.545,15.76l-4.792,19.8c-1.005,4.151-4.207,7.354-8.359,8.359l-19.8,4.791
	c-6.332,1.532-11.93,5.278-15.762,10.546l-11.966,16.451c-2.518,3.463-6.708,5.199-10.939,4.533l-20.104-3.164
	c-6.427-1.011-13.026,0.297-18.581,3.684l-17.407,10.615c-3.643,2.22-8.171,2.22-11.812,0l-17.411-10.616
	c-4.33-2.641-9.294-4.017-14.317-4.017c-1.42,0-2.847,0.11-4.262,0.333l-20.111,3.164c-4.23,0.666-8.42-1.073-10.938-4.534
	l-11.969-16.455c-3.832-5.267-9.429-9.013-15.76-10.545l-19.8-4.792c-4.152-1.005-7.354-4.207-8.359-8.359l-4.791-19.799
	c-1.532-6.332-5.277-11.931-10.546-15.763l-16.45-11.967c-3.462-2.518-5.199-6.71-4.533-10.939l3.164-20.105
	c1.011-6.427-0.297-13.025-3.684-18.58l-10.615-17.409c-2.222-3.643-2.222-8.17,0-11.812l10.617-17.411
	c3.386-5.554,4.695-12.152,3.684-18.578l-3.164-20.11c-0.665-4.229,1.073-8.42,4.534-10.938l16.456-11.969
	c5.267-3.832,9.013-9.429,10.545-15.76l4.792-19.8c1.005-4.151,4.207-7.354,8.359-8.359l19.8-4.791
	c6.332-1.532,11.93-5.278,15.762-10.546l11.966-16.451c2.518-3.462,6.708-5.201,10.939-4.534l20.105,3.164
	c6.428,1.013,13.027-0.297,18.581-3.684l17.407-10.615c3.643-2.22,8.171-2.22,11.812,0l17.411,10.616
	c5.554,3.388,12.154,4.697,18.579,3.685l20.111-3.164c4.228-0.663,8.42,1.073,10.938,4.534l11.969,16.455
	c3.832,5.267,9.429,9.013,15.76,10.545l19.8,4.792c4.152,1.005,7.354,4.207,8.359,8.359l4.791,19.799
	c1.532,6.332,5.277,11.931,10.546,15.763l16.451,11.966c3.462,2.518,5.199,6.71,4.533,10.939l-3.164,20.105
	c-1.011,6.427,0.297,13.025,3.684,18.58l10.615,17.409C434.509,191.838,434.509,196.365,432.287,200.008z"/>
<path d="M165.547,184.205l35.895,33.195l-9.528,47.954c-1.121,5.646,1.075,11.254,5.732,14.636c2.569,1.866,5.55,2.811,8.55,2.811
	c2.439,0,4.889-0.624,7.14-1.884l42.662-23.879l42.662,23.879c5.023,2.812,11.034,2.457,15.69-0.926
	c4.657-3.383,6.853-8.992,5.731-14.637l-9.528-47.953l35.895-33.195c4.226-3.907,5.746-9.736,3.968-15.21
	c-1.778-5.474-6.433-9.296-12.149-9.974l-48.551-5.757l-20.478-44.395c-2.411-5.226-7.484-8.473-13.24-8.473
	s-10.829,3.247-13.24,8.473l-20.478,44.396l-48.551,5.757c-5.716,0.678-10.372,4.5-12.149,9.974
	C159.803,174.469,161.323,180.298,165.547,184.205z M228.666,168.759c2.786-0.33,5.201-2.085,6.377-4.632l20.955-45.431
	l20.955,45.431c1.176,2.547,3.59,4.302,6.377,4.632l49.684,5.891l-36.733,33.969c-2.06,1.905-2.982,4.744-2.436,7.496l9.75,49.071
	l-43.658-24.437c-1.224-0.685-2.582-1.028-3.941-1.028c-1.359,0-2.716,0.342-3.941,1.028l-43.658,24.437l9.75-49.071
	c0.548-2.753-0.375-5.591-2.436-7.496L178.98,174.65L228.666,168.759z"/>
<g>
</g>
<g>
</g>
<g>
</g>
<g>
</g>
<g>
</g>
<g>
</g>
<g>
</g>
<g>
</g>
<g>
</g>
<g>
</g>
<g>
</g>
<g>
</g>
<g>
</g>
<g>
</g>
<g>
</g>
</svg>
