<svg height="512pt" viewBox="0 0 512 512.00131" width="512pt" xmlns="http://www.w3.org/2000/svg"><path d="m452.265625 213.335938v179.199218h-204.796875v-179.199218c-.003906-9.054688 3.589844-17.738282 9.992188-24.140626 6.402343-6.402343 15.085937-9.996093 24.140624-9.992187h136.53125c9.054688-.003906 17.738282 3.589844 24.140626 9.992187 6.402343 6.402344 9.996093 15.085938 9.992187 24.140626zm0 0" fill="#ad1457"/><path d="m426.667969 213.335938v179.199218h-179.199219v-179.199218c-.003906-9.054688 3.589844-17.738282 9.992188-24.140626 6.402343-6.402343 15.085937-9.996093 24.140624-9.992187h110.933594c9.050782-.003906 17.734375 3.589844 24.136719 9.992187 6.402344 6.402344 9.996094 15.085938 9.996094 24.140626zm0 0" fill="#e91e63"/><path d="m213.335938 307.203125h34.132812c9.425781 0 17.066406 7.640625 17.066406 17.066406v119.464844h-34.132812c-18.851563 0-34.136719-15.28125-34.136719-34.132813v-85.332031c0-9.425781 7.644531-17.066406 17.070313-17.066406zm0 0" fill="#e91e63"/><path d="m503.46875 324.269531v85.332031c0 9.054688-3.59375 17.738282-9.996094 24.136719-6.402344 6.402344-15.085937 10-24.136718 9.996094h-34.136719v-119.464844c.027343-9.414062 7.652343-17.039062 17.066406-17.066406h34.136719c9.414062.027344 17.039062 7.652344 17.066406 17.066406zm0 0" fill="#ad1457"/><path d="m477.867188 324.269531v85.332031c.003906 9.054688-3.59375 17.738282-9.996094 24.136719-6.398438 6.402344-15.082032 10-24.136719 9.996094h-8.535156v-119.464844c.027343-9.414062 7.652343-17.039062 17.066406-17.066406h8.535156c9.414063.027344 17.039063 7.652344 17.066407 17.066406zm0 0" fill="#e91e63"/><path d="m264.535156 392.535156h170.664063v51.199219h-170.664063zm0 0" fill="#ef314c"/><path d="m298.667969 341.335938h102.398437c18.851563 0 34.132813 15.28125 34.132813 34.132812v17.066406h-170.664063v-17.066406c0-18.851562 15.28125-34.132812 34.132813-34.132812zm0 0" fill="#ad1457"/><path d="m238.933594 443.734375-17.066406 59.734375h25.601562l34.132812-59.734375zm0 0" fill="#9e9e9e"/><path d="m460.800781 443.734375 17.066407 59.734375h-25.601563l-34.132813-59.734375zm0 0" fill="#9e9e9e"/><path d="m42.667969 469.335938h51.199219c18.851562 0 34.132812 15.28125 34.132812 34.132812h-119.464844c0-18.851562 15.28125-34.132812 34.132813-34.132812zm0 0" fill="#7f8e94"/><path d="m185.191406 68.507812c9.296875-1.570312 18.101563 4.6875 19.675782 13.984376l2.84375 16.828124-33.65625 5.6875-2.84375-16.828124c-1.574219-9.292969 4.6875-18.101563 13.980468-19.671876zm0 0" fill="#f5f5f5"/><path d="m240.347656 145.730469-81.867187 13.835937c-3.265625.554688-6.554688-.832031-8.4375-3.554687-1.882813-2.722657-2.023438-6.289063-.359375-9.152344l24.371094-41.847656 33.65625-5.691407 36.769531 31.515626c2.511719 2.15625 3.554687 5.570312 2.667969 8.761718-.882813 3.191406-3.535157 5.582032-6.800782 6.132813zm0 0" fill="#7f8e94"/><path d="m264.535156 452.269531h-34.132812c-23.554688-.027343-42.640625-19.117187-42.667969-42.667969v-85.332031c.015625-14.132812 11.46875-25.585937 25.601563-25.601562h34.132812c14.128906.015625 25.582031 11.46875 25.597656 25.601562v119.464844c0 4.714844-3.820312 8.535156-8.53125 8.535156zm-51.199218-136.535156c-4.710938.007813-8.527344 3.824219-8.535157 8.535156v85.332031c.015625 14.132813 11.46875 25.585938 25.601563 25.601563h25.597656v-110.933594c-.003906-4.710937-3.824219-8.527343-8.53125-8.535156zm0 0"/><path d="m469.335938 452.269531h-34.136719c-4.710938 0-8.53125-3.820312-8.53125-8.535156v-119.464844c.015625-14.132812 11.46875-25.585937 25.597656-25.601562h34.136719c14.128906.015625 25.582031 11.46875 25.597656 25.601562v85.332031c-.027344 23.550782-19.113281 42.640626-42.664062 42.667969zm-25.601563-17.066406h25.601563c14.128906-.015625 25.582031-11.46875 25.597656-25.601563v-85.332031c-.003906-4.710937-3.824219-8.527343-8.53125-8.535156h-34.136719c-4.707031.007813-8.527344 3.824219-8.53125 8.535156zm0 0"/><path d="m435.199219 452.269531h-170.664063c-4.714844 0-8.535156-3.820312-8.535156-8.535156v-51.199219c0-4.714844 3.820312-8.535156 8.535156-8.535156h170.664063c4.714843 0 8.535156 3.820312 8.535156 8.535156v51.199219c0 4.714844-3.820313 8.535156-8.535156 8.535156zm-162.132813-17.066406h153.601563v-34.136719h-153.601563zm0 0"/><path d="m435.199219 401.066406h-170.664063c-4.714844 0-8.535156-3.820312-8.535156-8.53125v-17.066406c.027344-23.554688 19.113281-42.640625 42.667969-42.667969h102.398437c23.554688.027344 42.640625 19.113281 42.667969 42.667969v17.066406c0 2.261719-.898437 4.433594-2.5 6.035156-1.601563 1.597657-3.769531 2.496094-6.035156 2.496094zm-162.132813-17.066406h153.601563v-8.53125c-.015625-14.132812-11.46875-25.585938-25.601563-25.601562h-102.398437c-14.132813.015624-25.585938 11.46875-25.601563 25.601562zm0 0"/><path d="m452.265625 315.734375c-4.710937 0-8.53125-3.820313-8.53125-8.53125v-93.867187c-.015625-14.132813-11.46875-25.585938-25.601563-25.601563h-136.53125c-14.132812.015625-25.585937 11.46875-25.601562 25.601563v93.867187c0 4.710937-3.820312 8.53125-8.53125 8.53125-4.714844 0-8.535156-3.820313-8.535156-8.53125v-93.867187c.027344-23.554688 19.113281-42.640626 42.667968-42.667969h136.53125c23.554688.027343 42.640626 19.113281 42.667969 42.667969v93.867187c0 4.710937-3.820312 8.53125-8.535156 8.53125zm0 0"/><path d="m247.46875 512h-25.601562c-2.675782 0-5.199219-1.257812-6.8125-3.394531-1.613282-2.136719-2.128907-4.910157-1.390626-7.484375l17.066407-59.730469c.816406-2.957031 3.15625-5.25 6.128906-6.003906 2.972656-.753907 6.125.148437 8.25 2.359375 2.125 2.210937 2.898437 5.394531 2.027344 8.335937l-13.957031 48.851563h9.339843l31.671875-55.433594c2.363282-4.035156 7.539063-5.417969 11.597656-3.09375 4.0625 2.320312 5.5 7.476562 3.222657 11.5625l-34.136719 59.734375c-1.515625 2.65625-4.34375 4.296875-7.40625 4.296875zm0 0"/><path d="m477.867188 512h-25.601563c-3.058594 0-5.886719-1.640625-7.40625-4.296875l-34.132813-59.734375c-1.554687-2.648438-1.5625-5.929688-.023437-8.585938s4.382813-4.285156 7.453125-4.261718c3.070312.027344 5.890625 1.699218 7.386719 4.378906l31.671875 55.433594h9.339844l-13.957032-48.851563c-.871094-2.941406-.097656-6.125 2.027344-8.335937 2.125-2.210938 5.273438-3.113282 8.25-2.359375 2.972656.753906 5.3125 3.042969 6.128906 6l17.066406 59.734375c.738282 2.574218.222657 5.34375-1.390624 7.484375-1.613282 2.136719-4.132813 3.394531-6.8125 3.394531zm0 0"/><path d="m349.867188 349.867188c-4.710938 0-8.53125-3.820313-8.53125-8.53125v-59.734376c0-4.714843 3.820312-8.535156 8.53125-8.535156 4.714843 0 8.535156 3.820313 8.535156 8.535156v59.734376c0 4.710937-3.820313 8.53125-8.535156 8.53125zm0 0"/><path d="m349.867188 349.867188c-2.261719.003906-4.433594-.894532-6.03125-2.5l-34.136719-34.132813c-3.230469-3.347656-3.1875-8.671875.105469-11.960937 3.292968-3.292969 8.613281-3.339844 11.960937-.105469l28.101563 28.101562 28.101562-28.101562c3.347656-3.234375 8.667969-3.1875 11.960938.105469 3.292968 3.289062 3.339843 8.613281.105468 11.960937l-34.136718 34.132813c-1.597657 1.605468-3.765626 2.503906-6.03125 2.5zm0 0"/><path d="m128 512h-119.464844c-4.714844 0-8.535156-3.820312-8.535156-8.53125.0273438-23.554688 19.113281-42.640625 42.667969-42.667969h51.199219c23.554687.027344 42.640624 19.113281 42.667968 42.667969 0 4.710938-3.820312 8.53125-8.535156 8.53125zm-109.46875-17.066406h99.472656c-3.625-10.21875-13.292968-17.054688-24.136718-17.066406h-51.199219c-10.847657.011718-20.511719 6.847656-24.136719 17.066406zm0 0"/><path d="m68.265625 477.867188c-4.710937 0-8.53125-3.820313-8.53125-8.53125v-401.410157c.007813-35.644531 27.566406-65.226562 63.125-67.753906 35.554687-2.527344 67.019531 22.859375 72.070313 58.144531l1.253906 8.742188c.558594 4.609375-2.667969 8.820312-7.265625 9.480468-4.59375.65625-8.871094-2.480468-9.625-7.0625l-1.253907-8.742187c-3.773437-26.429687-27.335937-45.445313-53.96875-43.554687-26.628906 1.894531-47.269531 24.046874-47.269531 50.746093v401.410157c0 4.710937-3.820312 8.53125-8.535156 8.53125zm0 0"/><path d="m174.046875 113.542969c-4.160156-.003907-7.710937-3.007813-8.40625-7.113281l-2.84375-16.828126c-2.285156-13.90625 7.101563-27.042968 20.996094-29.390624 13.894531-2.347657 27.074219 6.976562 29.488281 20.859374l2.839844 16.832032c.785156 4.644531-2.347656 9.046875-6.992188 9.832031l-33.652344 5.6875c-.472656.082031-.949218.121094-1.429687.121094zm13.996094-36.738281c-.480469 0-.957031.039062-1.429688.117187-4.644531.792969-7.769531 5.191406-6.992187 9.835937l1.425781 8.414063 16.828125-2.839844-1.421875-8.417969c-.699219-4.101562-4.25-7.101562-8.410156-7.109374zm0 0"/><path d="m156.984375 168.226562c-6.097656-.027343-11.714844-3.304687-14.742187-8.597656-3.027344-5.292968-3.003907-11.796875.066406-17.066406l24.367187-41.847656c1.277344-2.191406 3.457031-3.699219 5.957031-4.117188l33.652344-5.6875c2.496094-.429687 5.054688.28125 6.976563 1.933594l36.769531 31.515625c5.027344 4.3125 7.105469 11.140625 5.332031 17.519531-1.769531 6.378906-7.070312 11.15625-13.597656 12.261719l-81.867187 13.835937c-.960938.167969-1.9375.25-2.914063.25zm22.433594-55.464843-22.359375 38.394531 81.867187-13.839844.066407-.015625-33.792969-28.898437zm0 0"/><path d="m34.132812 477.867188c-4.710937 0-8.53125-3.820313-8.53125-8.53125v-17.066407c0-4.714843 3.820313-8.535156 8.53125-8.535156 4.714844 0 8.535157 3.820313 8.535157 8.535156v17.066407c0 4.710937-3.820313 8.53125-8.535157 8.53125zm0 0"/><path d="m503.46875 512h-494.933594c-4.714844 0-8.535156-3.820312-8.535156-8.53125 0-4.714844 3.820312-8.535156 8.535156-8.535156h494.933594c4.710938 0 8.53125 3.820312 8.53125 8.535156 0 4.710938-3.820312 8.53125-8.53125 8.53125zm0 0"/></svg>