<?xml version="1.0" ?><!DOCTYPE svg  PUBLIC '-//W3C//DTD SVG 1.1//EN'  'http://www.w3.org/Graphics/SVG/1.1/DTD/svg11.dtd'><svg enable-background="new 0 0 64 64" height="64px" id="Layer_1" version="1.1" viewBox="0 0 64 64" width="64px" xml:space="preserve" xmlns="http://www.w3.org/2000/svg" xmlns:xlink="http://www.w3.org/1999/xlink"><g><g><path d="M295.665,451.924c-0.491,0-0.983-0.318-1.254-0.812l-4.454-8.142h-11.363l-0.079-0.013    c0,0-0.229,0.004-0.23,0.004c-1.169,0-2.08-0.854-2.152-1.946l-0.71-10.828c-0.074-1.147,0.8-2.143,1.947-2.217l0.636-0.039    l0.145-0.005c1.094,0,2.006,0.853,2.077,1.941l0.25,3.925h7.509c0.281,0,0.52,0.316,0.52,0.69s-0.238,0.689-0.52,0.689h-7.42    l0.293,4.41h8.797c0.181,0,0.355,0.029,0.533,0.088l0.071,0.024l0.073,0.013c0.415,0.072,0.798,0.362,1.026,0.777l5.179,9.467    c0.375,0.694,0.207,1.524-0.377,1.846C296.007,451.883,295.845,451.924,295.665,451.924z" fill="#723881"/><path d="M278.149,428.927c0.568,0,1.043,0.442,1.079,1.003l0.19,2.99l0.08,1.253h-0.003l0.143,2.133l0.16,2.41    l0.124,1.867h1.871h7.861c0.072,0,0.142,0.012,0.217,0.037l0.143,0.047l0.146,0.026c0.092,0.016,0.224,0.096,0.319,0.27    l5.175,9.461c0.145,0.267,0.061,0.478,0.01,0.5c-0.084,0-0.261-0.079-0.376-0.29l-4.17-7.623l-0.569-1.04h-1.186h-10.729    l-0.061-0.01h-0.16h-0.09l-0.077,0.001l-0.037,0.001c-0.568,0-1.043-0.444-1.08-1.012l-0.71-10.826    c-0.039-0.6,0.416-1.118,1.007-1.156l0.647-0.039L278.149,428.927 M278.149,426.927c-0.068,0-0.137,0.002-0.206,0.007    l-0.639,0.039c-1.701,0.11-2.99,1.58-2.881,3.28l0.71,10.829c0.107,1.632,1.466,2.881,3.076,2.881    c0.038,0,0.076-0.001,0.114-0.002h0.09c0.061,0.01,0.12,0.01,0.18,0.01h10.771l4.17,7.623c0.461,0.84,1.301,1.33,2.131,1.33    c0.34,0,0.67-0.08,0.979-0.25c1.07-0.59,1.41-2.02,0.771-3.201l-5.18-9.47c-0.391-0.71-1.041-1.16-1.73-1.28    c-0.27-0.09-0.551-0.14-0.85-0.14h-7.861l-0.16-2.41h6.352c0.84,0,1.52-0.76,1.52-1.689c0-0.931-0.68-1.69-1.52-1.69h-6.57    l-0.19-2.99C281.118,428.173,279.762,426.927,278.149,426.927L278.149,426.927z" fill="#723881"/></g><g><circle cx="277.667" cy="422.505" fill="#723881" r="2.583"/><path d="M277.667,420.922c0.873,0,1.584,0.71,1.584,1.583s-0.711,1.583-1.584,1.583s-1.583-0.71-1.583-1.583    S276.794,420.922,277.667,420.922 M277.667,418.922c-1.979,0-3.583,1.604-3.583,3.583s1.604,3.583,3.583,3.583    c1.979,0,3.584-1.604,3.584-3.583S279.646,418.922,277.667,418.922L277.667,418.922z" fill="#723881"/></g><path d="M270.166,435.504c0,0-5.969,4.249-5.406,11.968s6.625,12.156,11.875,12.906s11.062-1.416,14.312-7.145   c0.312-0.699,0.656-1.199,0-1.824c0,0-0.844-0.656-1.5,0.344s-1.625,3.531-5.188,5.344c-2.188,1.125-5.094,2.125-9.125,0.906   s-9.031-5.844-8.375-12.344c0.438-3.438,1.594-6.156,5.219-8.968c0.75-0.688,0.719-1.156,0.375-1.562s-0.875-0.5-1.375-0.188   S270.166,435.504,270.166,435.504z" fill="#723881"/></g><g><g><path d="M55.365-0.001H8.636c-0.968,0-1.751,0.81-1.751,1.809v13.261h50.23V1.808    C57.115,0.809,56.334-0.001,55.365-0.001z M53.616,11.754H10.197V4.296c0-0.562,0.677-1.019,1.513-1.019h40.391    c0.837,0,1.515,0.456,1.515,1.019V11.754z" fill="#723881"/></g><g><path d="M6.885,18.285v44.042c0,0.925,0.783,1.674,1.751,1.674h46.729c0.969,0,1.75-0.749,1.75-1.674V18.285H6.885    z M53.751,58.727c0,0.779-0.678,1.409-1.519,1.409H11.75c-0.839,0-1.518-0.63-1.518-1.409V21.659h43.519V58.727z" fill="#723881"/></g><g><path d="M31.931,26.474c-7.822,0-14.164,6.341-14.164,14.161c0,7.823,6.341,14.162,14.164,14.162    c7.819,0,14.161-6.339,14.161-14.162C46.092,32.814,39.75,26.474,31.931,26.474z M31.915,51.873    c-6.092,0-11.119-4.551-11.861-10.44c0,0,3.313,4.559,7.377,0.145c1.541,3.152,6.374,3.854,8.827-0.14    c2.103,2.872,7.551-0.296,7.551-0.296C43.197,47.173,38.105,51.873,31.915,51.873z" fill="#723881"/></g><circle cx="16.128" cy="7.534" fill="#723881" r="2.512"/><circle cx="24.422" cy="7.534" fill="#723881" r="2.512"/></g></svg>